<?xml version="1.0"?>
<svg width="375" height="374.999991" xmlns="http://www.w3.org/2000/svg" xmlns:svg="http://www.w3.org/2000/svg" preserveAspectRatio="xMidYMid meet" version="1.0">
 <defs>
  <clipPath id="b010f43f04">
   <path clip-rule="nonzero" d="m90.19,40l194.81,0l0,274l-194.81,0l0,-274zm0,0" id="svg_1"/>
  </clipPath>
 </defs>
 <g class="layer">
  <title>Layer 1</title>
  <path d="m263.08,309.78l-0.65,3.63c-3.05,7.3 -12,13.14 -26.84,17.53c-14.93,4.38 -32.53,6.15 -52.77,5.32c-19.32,-1.15 -34.77,-4.54 -46.36,-10.15c-3.71,-1.81 -6.76,-3.79 -9.17,-5.93l-3.02,-3.3c-1.67,-2.27 -2.51,-4.63 -2.53,-7.1c0.51,-7.57 7.4,-13.87 20.7,-18.9c13.29,-5.03 29.95,-7.64 49.97,-7.83c20.02,0.19 36.68,2.8 49.97,7.83c13.3,5.03 20.19,11.33 20.7,18.9" fill="#d9dad9" fill-rule="nonzero" id="svg_2"/>
  <g clip-path="url(#b010f43f04)" id="svg_3">
   <path d="m284.19,133.08l-1.51,-13.08c-5.43,-26.23 -18.65,-46.84 -39.73,-61.68c-21.16,-14.91 -45.68,-20.82 -73.12,-15.85c-26.37,4.78 -47.7,18.08 -61.69,39.74c-11.26,17.43 -13.45,27.06 -15.11,34.17c-2.28,9.78 -2.82,16.96 -2.23,25.87c1.8,27.38 17.34,45.57 31.56,67.04c17.18,25.93 54.25,78.36 70.17,104.17c20.57,-37.02 53.28,-88.6 66.58,-110.66c13.3,-22.05 25.69,-42.29 25.08,-69.72zm0,0" fill="#007fff" fill-rule="nonzero" id="svg_4"/>
  </g>
  <path d="m183,147.5c-0.52,1.58 -1.01,2.66 -1.2,3.34c-0.22,0.81 -0.32,1.26 -0.56,2.23c-0.13,0.52 -0.56,2.15 -0.73,2.71c-0.33,1.12 -0.51,1.68 -0.69,2.22c-0.34,1.04 -0.65,2 -0.94,2.84c-0.26,0.77 -0.52,1.5 -0.85,2.22c-0.54,1.19 -1.03,2.03 -1.27,2.46c-0.47,0.85 -0.97,1.6 -1.4,2.58c-0.4,0.92 -0.38,1.87 -0.89,2.43c-0.57,0.63 -0.97,1.5 -1.28,2.28c-0.39,1 -0.7,1.64 -1.2,2.51l-0.48,0.65l-0.46,0.82" fill="none" id="svg_7"/>
  <polyline fill="none" id="svg_8" opacity="0.5" points="205,113.5 " stroke-linecap="round"/>
 </g>
</svg>